<?xml version="1.0" encoding="utf-8"?>
<svg width="78" height="16" viewBox="0 0 78 16" fill="none" xmlns="http://www.w3.org/2000/svg" class="h-4 w-auto"><path d="M0.583984 7.99786C0.583984 3.38602 3.98286 0 8.76615 0C13.5494 0 16.9097 3.38602 16.9097 7.99786V8.67506H2.69703C2.97563 11.8468 5.34584 14.0927 8.75757 14.0927C11.1578 14.0927 13.0051 13.1069 13.9909 11.3539H16.2368C15.0667 14.1527 12.2979 16 8.75757 16C3.98286 16 0.583984 12.614 0.583984 7.99786ZM14.7281 6.83204C14.2352 3.75462 11.835 1.90731 8.75757 1.90731C5.59015 1.90731 3.21993 3.84463 2.75704 6.83204H14.7281Z" fill="currentColor"></path><path d="M31.041 7.99786C31.041 3.38602 34.427 0 39.2232 0C44.0193 0 47.4096 3.38602 47.4096 7.99786C47.4096 12.6097 44.0236 16 39.2232 16C34.4227 16 31.041 12.614 31.041 7.99786ZM45.3137 7.99786C45.3137 4.49183 42.8535 1.90731 39.2232 1.90731C35.5929 1.90731 33.1326 4.47897 33.1326 7.99786C33.1326 11.5167 35.5929 14.0927 39.2232 14.0927C42.8535 14.0927 45.3137 11.5082 45.3137 7.99786Z" fill="currentColor"></path><path d="M62.1748 7.65925C62.1748 2.61452 65.1751 0 69.6798 0C74.1844 0 77.1847 2.61452 77.1847 7.65925V15.5971H75.1317V7.65925C75.1317 3.90892 72.9886 1.90731 69.684 1.90731C66.3795 1.90731 64.2407 3.90892 64.2407 7.65925V15.5971H62.1791L62.1748 7.65925Z" fill="currentColor"></path></svg>