<svg width="497" height="121" viewBox="0 0 497 121" fill="none" xmlns="http://www.w3.org/2000/svg">
<g clip-path="url(#clip0_2194_137)">
<path d="M18.3596 50.0746L17.0694 56.2691C15.5567 55.4837 14.1924 55.3058 13.2432 55.3058C8.95736 55.3058 6.59938 59.5738 6.59938 66.9538V76.127H0V49.8523H6.52523V55.4836C7.93408 51.0971 10.7963 49.1854 14.0737 49.1854C15.6457 49.1854 17.3363 49.5263 18.3448 50.0894L18.3596 50.0746Z" fill="#232323"/>
<path d="M46.2252 65.2644H25.8487C26.5754 68.9248 29.3931 70.8958 33.3379 70.8958C36.1556 70.8958 38.914 69.6658 40.4267 67.517L44.8164 70.8365C42.3991 74.6599 37.7276 76.7939 32.9375 76.7939C25.1072 76.7939 19.1455 71.1625 19.1455 62.9526C19.1455 54.7427 25.389 49.1706 32.9375 49.1706C40.486 49.1706 46.3439 54.5204 46.3439 62.7303C46.3439 63.4564 46.2845 64.3012 46.2252 65.2644ZM39.8631 60.7C39.4627 57.0989 36.6598 54.965 32.9968 54.965C29.3338 54.965 26.6347 56.7136 25.8487 60.7H39.8631Z" fill="#232323"/>
<path d="M76.4638 61.3817V76.127H69.9386V61.8412C69.9386 57.6176 67.4026 55.3651 64.4811 55.3651C61.5596 55.3651 57.7779 57.1138 57.7779 62.1672V76.127H51.2527V49.8523H57.7779V54.0165C59.1274 50.697 63.2354 49.1854 65.9344 49.1854C72.697 49.1854 76.4638 53.7498 76.4638 61.3966V61.3817Z" fill="#232323"/>
<path d="M96.8997 49.8523V55.0243H91.3236V76.127H84.7984V55.0243H80.0676V49.8523H84.7984V40.1753H91.3236V49.8523H96.8997Z" fill="#232323"/>
<path d="M120.316 49.8523H126.842V76.127H120.316V72.022C118.566 74.897 115.081 76.8087 111.315 76.8087C104.27 76.8087 98.6497 71.1329 98.6497 62.9674C98.6497 54.802 104.048 49.1854 111.493 49.1854C115.096 49.1854 118.581 50.7563 120.331 53.5127V49.8523H120.316ZM120.213 62.9526C120.213 58.4475 116.505 55.2465 112.62 55.2465C108.393 55.2465 105.19 58.7291 105.19 62.9526C105.19 67.1761 108.393 70.7179 112.679 70.7179C116.728 70.7179 120.227 67.3391 120.227 62.9526H120.213Z" fill="#232323"/>
<path d="M352.526 61.3817V76.127H346V61.8411C346 57.6176 343.464 55.3651 340.543 55.3651C337.621 55.3651 333.84 57.1138 333.84 62.2264V76.127H327.314V35.5664H333.84V53.8535C335.13 50.6525 339.356 49.1854 341.996 49.1854C348.759 49.1854 352.526 53.7498 352.526 61.3966V61.3817Z" fill="#232323"/>
<path d="M377.188 49.8523H383.713V76.127H377.188V72.022C375.838 75.3416 371.671 76.8087 369.031 76.8087C362.269 76.8087 358.502 72.2592 358.502 64.5975V49.8523H365.027V64.316C365.027 68.5395 367.563 70.7328 370.485 70.7328C373.406 70.7328 377.188 69.0434 377.188 63.9307V49.8671V49.8523Z" fill="#232323"/>
<path d="M432.148 61.3817V76.127H425.667V61.7226C425.667 57.4991 423.473 55.3058 420.432 55.3058C416.666 55.3058 414.515 57.8992 414.515 63.1304V76.127H407.99V61.7226C407.99 57.5583 405.795 55.3058 402.977 55.3058C399.937 55.3058 396.897 57.0989 396.897 62.1079V76.1122H390.372V49.8375H396.897V53.8831C398.024 50.8452 401.509 49.1558 404.727 49.1558C408.553 49.1558 411.653 51.1267 413.225 54.4463C415.316 50.3413 419.424 49.1558 422.064 49.1558C428.648 49.1558 432.133 53.7201 432.133 61.3669L432.148 61.3817Z" fill="#232323"/>
<path d="M458.605 49.8523H465.13V76.127H458.605V72.022C456.855 74.897 453.37 76.8087 449.603 76.8087C442.559 76.8087 436.938 71.1329 436.938 62.9674C436.938 54.802 442.336 49.1854 449.781 49.1854C453.385 49.1854 456.87 50.7563 458.62 53.5127V49.8523H458.605ZM458.501 62.9526C458.501 58.4475 454.794 55.2465 450.908 55.2465C446.682 55.2465 443.478 58.7291 443.478 62.9526C443.478 67.1761 446.682 70.7179 450.967 70.7179C455.016 70.7179 458.516 67.3391 458.516 62.9526H458.501Z" fill="#232323"/>
<path d="M497 61.3817V76.127H490.475V61.8412C490.475 57.6176 487.939 55.3651 485.017 55.3651C482.096 55.3651 478.314 57.1138 478.314 62.1672V76.127H471.789V49.8523H478.314V54.0165C479.664 50.697 483.772 49.1854 486.471 49.1854C493.233 49.1854 497 53.7498 497 61.3966V61.3817Z" fill="#232323"/>
<path d="M204.492 102.698C204.655 99.6157 207.028 97.0223 210.097 96.6221C211.017 96.5036 211.922 96.5777 212.737 96.8148H212.782C212.915 96.8593 213.034 96.8889 213.167 96.9334C215.229 97.6743 217.676 98.8154 219.9 98.1486C222.881 97.2446 223.964 93.1692 225.194 90.6055C226.396 88.0862 227.597 85.5669 228.813 83.0476C229.436 81.7435 230.059 80.4246 230.696 79.1205C231.215 78.0239 231.601 76.8531 232.179 75.7861C233.41 73.5632 235.857 72.2591 238.393 72.4814C241.522 72.7482 244.029 75.2675 244.296 78.3944C244.488 80.6617 243.51 82.7068 241.893 83.9961C233.662 90.5462 238.883 96.1776 240.736 97.7781C240.929 97.9263 241.122 98.0744 241.315 98.2375C242.62 99.423 243.45 101.142 243.45 103.039C243.45 105.143 242.397 107.159 240.662 108.359C238.556 109.826 235.991 109.5 233.559 109.5H219.781C216.845 109.515 213.924 109.515 210.987 109.515C207.28 109.515 204.314 106.418 204.507 102.683L204.492 102.698Z" fill="#232323"/>
<path d="M244.815 121C248.124 121 250.806 118.319 250.806 115.013C250.806 111.706 248.124 109.026 244.815 109.026C241.506 109.026 238.823 111.706 238.823 115.013C238.823 118.319 241.506 121 244.815 121Z" fill="#232323"/>
<path d="M180.156 51.4083C183.151 50.6081 186.34 52.0752 187.674 54.8612C188.075 55.7059 188.282 56.5803 188.312 57.425V57.4694C188.312 57.6028 188.312 57.7362 188.312 57.8696C188.238 60.048 187.912 62.7451 189.246 64.642C191.026 67.1909 195.238 66.9686 198.055 67.3391C200.829 67.7096 203.602 68.0653 206.375 68.4358C207.814 68.6284 209.252 68.8211 210.691 68.9989C211.892 69.1619 213.138 69.1471 214.324 69.3842C216.816 69.8584 218.818 71.7998 219.396 74.2598C220.108 77.3126 218.491 80.4839 215.599 81.6991C213.508 82.5734 211.254 82.277 209.519 81.1508C200.74 75.3564 197.003 82.0548 196.039 84.3073C195.964 84.5444 195.875 84.7667 195.772 84.989C195.045 86.6043 193.666 87.9084 191.857 88.5012C189.854 89.1532 187.615 88.7679 185.924 87.4935C183.878 85.9522 183.403 83.4181 182.647 81.1063L178.376 68.0208C177.471 65.2348 176.552 62.4487 175.647 59.6627C174.505 56.1505 176.522 52.3568 180.156 51.3935V51.4083Z" fill="#232323"/>
<path d="M180.897 99.5268C184.206 99.5268 186.888 96.8463 186.888 93.5397C186.888 90.2332 184.206 87.5527 180.897 87.5527C177.588 87.5527 174.906 90.2332 174.906 93.5397C174.906 96.8463 177.588 99.5268 180.897 99.5268Z" fill="#232323"/>
<path d="M221.442 12.4334C223.133 15.0268 222.718 18.5094 220.478 20.6434C219.796 21.2806 219.04 21.74 218.224 22.0364L218.18 22.0512C218.046 22.0957 217.928 22.1401 217.794 22.1698C215.688 22.7773 213.034 23.296 211.64 25.1484C209.771 27.6381 211.269 31.5652 211.788 34.3513C212.292 37.0928 212.811 39.8492 213.316 42.5908C213.582 44.0135 213.849 45.4509 214.116 46.8736C214.339 48.074 214.724 49.2447 214.873 50.4451C215.184 52.9644 213.968 55.454 211.788 56.7729C209.104 58.3882 205.589 57.8251 203.543 55.454C202.06 53.735 201.644 51.4972 202.193 49.5115C204.996 39.375 197.462 37.8931 195.015 37.6708C194.763 37.6708 194.526 37.6708 194.289 37.6411C192.524 37.4485 190.863 36.5445 189.736 35.0033C188.49 33.2991 188.164 31.0465 188.861 29.0607C189.706 26.6452 191.96 25.4004 193.933 23.9629C197.64 21.2658 201.363 18.5538 205.07 15.8567C207.443 14.1377 209.816 12.4038 212.188 10.6848C215.184 8.50631 219.411 9.2621 221.457 12.4038L221.442 12.4334Z" fill="#232323"/>
<path d="M181.579 32.1432C184.888 32.1432 187.571 29.4627 187.571 26.1561C187.571 22.8496 184.888 20.1691 181.579 20.1691C178.27 20.1691 175.588 22.8496 175.588 26.1561C175.588 29.4627 178.27 32.1432 181.579 32.1432Z" fill="#232323"/>
<path d="M271.301 39.6269C269.358 42.0277 265.903 42.7242 263.189 41.2422C262.373 40.7977 261.691 40.2049 261.157 39.538L261.128 39.4936C261.039 39.3898 260.965 39.2861 260.89 39.1675C259.66 37.3596 258.354 34.9885 256.16 34.2327C253.208 33.225 249.946 35.8628 247.44 37.2262C244.978 38.5599 242.531 39.8937 240.069 41.2274C238.794 41.9239 237.518 42.6056 236.243 43.3021C235.175 43.8801 234.181 44.6062 233.069 45.1249C230.771 46.2067 228.012 45.8066 226.099 44.1468C223.726 42.1018 223.178 38.5748 224.809 35.9073C225.995 33.9659 227.982 32.8841 230.044 32.7804C240.558 32.321 239.639 24.689 239.09 22.3031C239.016 22.066 238.942 21.8289 238.897 21.5918C238.541 19.8579 238.883 17.9907 239.995 16.4495C241.241 14.7452 243.272 13.7375 245.378 13.782C247.944 13.8264 249.827 15.6048 251.785 17.0274C255.507 19.7245 259.229 22.4217 262.937 25.1188C265.31 26.8378 267.683 28.5569 270.055 30.2759C273.051 32.4544 273.644 36.7075 271.271 39.6121L271.301 39.6269Z" fill="#232323"/>
<path d="M245.927 11.974C249.236 11.974 251.918 9.29356 251.918 5.98702C251.918 2.68048 249.236 0 245.927 0C242.618 0 239.936 2.68048 239.936 5.98702C239.936 9.29356 242.618 11.974 245.927 11.974Z" fill="#232323"/>
<path d="M260.816 95.4218C257.924 94.3103 256.204 91.2575 256.768 88.2047C256.931 87.2859 257.287 86.4709 257.761 85.7447L257.791 85.7003C257.865 85.5817 257.939 85.478 258.028 85.3743C259.363 83.6552 261.217 81.6694 261.261 79.3576C261.321 76.2455 257.776 73.9485 255.73 72.0072C253.698 70.0807 251.681 68.1542 249.649 66.2425C248.596 65.2496 247.543 64.2419 246.491 63.249C245.616 62.4191 244.607 61.6929 243.777 60.8038C242.041 58.9513 241.567 56.2098 242.546 53.8831C243.762 50.9934 246.935 49.378 249.99 50.1042C252.2 50.6229 253.846 52.1937 254.588 54.1202C258.28 63.9751 265.251 60.7445 267.356 59.4848C267.549 59.3366 267.757 59.2033 267.964 59.0847C269.492 58.2104 271.39 57.9584 273.199 58.5364C275.202 59.1885 276.788 60.8186 277.411 62.834C278.153 65.2792 277.055 67.6207 276.299 69.9325L272.058 83.0328C271.153 85.8188 270.248 88.6049 269.344 91.3909C268.202 94.9031 264.331 96.7852 260.831 95.4366L260.816 95.4218Z" fill="#232323"/>
<path d="M285.004 66.8945C288.313 66.8945 290.996 64.214 290.996 60.9075C290.996 57.6009 288.313 54.9205 285.004 54.9205C281.695 54.9205 279.013 57.6009 279.013 60.9075C279.013 64.214 281.695 66.8945 285.004 66.8945Z" fill="#232323"/>
</g>
<defs>
<clipPath id="clip0_2194_137">
<rect width="497" height="121" fill="white"/>
</clipPath>
</defs>
</svg>
